<svg xmlns="http://www.w3.org/2000/svg" viewBox="0 0 64 64"><defs><linearGradient gradientUnits="userSpaceOnUse" x2="198.297" gradientTransform="matrix(.21437 0 0 .12862 20.746 34)" id="a" x1="-5.509" y1="63.455" y2="133.961"><stop offset="0" stop-color="#2298bd"/><stop offset="1" stop-color="#0ed7b5"/></linearGradient></defs><path d="M0 0h64v64H0z" opacity=".404" fill="#3b7eb0"/><path fill="#FFF" d="M14 14h32v36H14z"/><path fill="#3B7EB0" d="M22 42h8v4h-8z"/><path fill="#3B7EB0" d="M32 42h8v4h-8z" opacity=".5"/><path fill="#3B7EB0" d="M22 18h14v2H22zm0 14h2v2h-2zm0 4h2v2h-2z"/><path fill="#3B7EB0" d="M26 32h16v2H26zm0 4h16v2H26zm-4-14h20v8H22z" opacity=".5"/><path fill="#3B7EB0" d="M14 14h4v4h-4z"/><path d="M16 14h2v36h-2z" opacity=".5" fill="#3b7eb0"/><path d="M42 34c-5.668 0-9.21 2.834-10.627 8.502 2.125-2.834 4.605-3.897 7.439-3.188 1.617.404 2.772 1.577 4.052 2.875 2.084 2.115 4.495 4.564 9.763 4.564 5.668 0 9.21-2.834 10.627-8.502-2.125 2.834-4.605 3.897-7.439 3.188-1.617-.404-2.772-1.577-4.051-2.876C49.68 36.448 47.267 34 42 34zM31.373 46.753c-5.668 0-9.21 2.833-10.627 8.501 2.125-2.834 4.605-3.896 7.439-3.188 1.617.404 2.772 1.577 4.052 2.876 2.083 2.115 4.495 4.563 9.763 4.563 5.668 0 9.21-2.834 10.627-8.502-2.125 2.834-4.605 3.897-7.439 3.189-1.617-.405-2.772-1.578-4.052-2.876-2.084-2.115-4.495-4.563-9.763-4.563z" fill="url(#a)"/></svg>
